<svg width="22" height="22" viewBox="0 0 22 22" fill="none" xmlns="http://www.w3.org/2000/svg">
<g id="settings-sliders 1" clip-path="url(#clip0_194_314)">
<path id="Vector" d="M1.2219 4.55595H3.6539C3.84468 5.25793 4.26116 5.87763 4.83908 6.31944C5.41699 6.76125 6.12423 7.00062 6.85167 7.00062C7.57912 7.00062 8.28636 6.76125 8.86427 6.31944C9.44219 5.87763 9.85866 5.25793 10.0495 4.55595H20.7775C21.0132 4.55595 21.2393 4.4623 21.406 4.2956C21.5727 4.1289 21.6663 3.90281 21.6663 3.66706C21.6663 3.43131 21.5727 3.20522 21.406 3.03852C21.2393 2.87182 21.0132 2.77817 20.7775 2.77817H10.0495C9.85866 2.07619 9.44219 1.45649 8.86427 1.01468C8.28636 0.572866 7.57912 0.333496 6.85167 0.333496C6.12423 0.333496 5.41699 0.572866 4.83908 1.01468C4.26116 1.45649 3.84468 2.07619 3.6539 2.77817H1.2219C0.986149 2.77817 0.760056 2.87182 0.593357 3.03852C0.426658 3.20522 0.333008 3.43131 0.333008 3.66706C0.333008 3.90281 0.426658 4.1289 0.593357 4.2956C0.760056 4.4623 0.986149 4.55595 1.2219 4.55595ZM6.85123 2.1115C7.15889 2.1115 7.45964 2.20274 7.71545 2.37366C7.97126 2.54459 8.17064 2.78753 8.28838 3.07177C8.40611 3.35601 8.43692 3.66879 8.3769 3.97053C8.31687 4.27228 8.16872 4.54945 7.95117 4.767C7.73362 4.98455 7.45645 5.1327 7.1547 5.19273C6.85296 5.25275 6.54018 5.22194 6.25594 5.10421C5.9717 4.98647 5.72876 4.78709 5.55783 4.53128C5.38691 4.27547 5.29567 3.97472 5.29567 3.66706C5.29614 3.25464 5.46018 2.85926 5.75181 2.56764C6.04343 2.27601 6.43882 2.11197 6.85123 2.1115Z" fill="#FFD100"/>
<path id="Vector_2" d="M20.7775 10.1111H18.3455C18.155 9.40892 17.7387 8.789 17.1608 8.347C16.5829 7.90501 15.8756 7.66553 15.1481 7.66553C14.4206 7.66553 13.7133 7.90501 13.1354 8.347C12.5576 8.789 12.1413 9.40892 11.9508 10.1111H1.2219C0.986149 10.1111 0.760056 10.2047 0.593357 10.3714C0.426658 10.5381 0.333008 10.7642 0.333008 11C0.333008 11.2357 0.426658 11.4618 0.593357 11.6285C0.760056 11.7952 0.986149 11.8888 1.2219 11.8888H11.9508C12.1413 12.591 12.5576 13.2109 13.1354 13.6529C13.7133 14.0949 14.4206 14.3344 15.1481 14.3344C15.8756 14.3344 16.5829 14.0949 17.1608 13.6529C17.7387 13.2109 18.155 12.591 18.3455 11.8888H20.7775C21.0132 11.8888 21.2393 11.7952 21.406 11.6285C21.5727 11.4618 21.6663 11.2357 21.6663 11C21.6663 10.7642 21.5727 10.5381 21.406 10.3714C21.2393 10.2047 21.0132 10.1111 20.7775 10.1111ZM15.1481 12.5555C14.8405 12.5555 14.5397 12.4643 14.2839 12.2934C14.0281 12.1224 13.8287 11.8795 13.711 11.5952C13.5932 11.311 13.5624 10.9982 13.6225 10.6965C13.6825 10.3947 13.8306 10.1176 14.0482 9.90001C14.2657 9.68246 14.5429 9.53431 14.8446 9.47429C15.1464 9.41427 15.4592 9.44508 15.7434 9.56281C16.0276 9.68055 16.2706 9.87993 16.4415 10.1357C16.6124 10.3915 16.7037 10.6923 16.7037 11C16.7032 11.4124 16.5392 11.8078 16.2475 12.0994C15.9559 12.391 15.5605 12.555 15.1481 12.5555Z" fill="#FFD100"/>
<path id="Vector_3" d="M20.7775 17.4447H10.0495C9.85866 16.7427 9.44219 16.123 8.86427 15.6812C8.28636 15.2394 7.57912 15 6.85167 15C6.12423 15 5.41699 15.2394 4.83908 15.6812C4.26116 16.123 3.84468 16.7427 3.6539 17.4447H1.2219C0.986149 17.4447 0.760056 17.5383 0.593357 17.705C0.426658 17.8717 0.333008 18.0978 0.333008 18.3336C0.333008 18.5693 0.426658 18.7954 0.593357 18.9621C0.760056 19.1288 0.986149 19.2225 1.2219 19.2225H3.6539C3.84468 19.9244 4.26116 20.5441 4.83908 20.9859C5.41699 21.4278 6.12423 21.6671 6.85167 21.6671C7.57912 21.6671 8.28636 21.4278 8.86427 20.9859C9.44219 20.5441 9.85866 19.9244 10.0495 19.2225H20.7775C21.0132 19.2225 21.2393 19.1288 21.406 18.9621C21.5727 18.7954 21.6663 18.5693 21.6663 18.3336C21.6663 18.0978 21.5727 17.8717 21.406 17.705C21.2393 17.5383 21.0132 17.4447 20.7775 17.4447ZM6.85123 19.8891C6.54357 19.8891 6.24282 19.7979 5.98701 19.627C5.7312 19.456 5.53182 19.2131 5.41408 18.9288C5.29635 18.6446 5.26554 18.3318 5.32556 18.0301C5.38559 17.7283 5.53374 17.4512 5.75129 17.2336C5.96883 17.0161 6.24601 16.8679 6.54776 16.8079C6.8495 16.7479 7.16227 16.7787 7.44651 16.8964C7.73076 17.0142 7.9737 17.2135 8.14463 17.4693C8.31555 17.7252 8.40679 18.0259 8.40679 18.3336C8.40608 18.7459 8.24197 19.1412 7.95039 19.4327C7.65882 19.7243 7.26357 19.8884 6.85123 19.8891Z" fill="#FFD100"/>
</g>
<defs>
<clipPath id="clip0_194_314">
<rect width="21.3333" height="21.3333" fill="white" transform="translate(0.333008 0.333496)"/>
</clipPath>
</defs>
</svg>
